<svg xmlns="http://www.w3.org/2000/svg" viewBox="0 0 64 64" width="64" height="64">
  <defs>
    <linearGradient id="fg" x1="0%" y1="0%" x2="100%" y2="100%">
      <stop offset="0%" style="stop-color:#2D5016"/>
      <stop offset="100%" style="stop-color:#4A7C8C"/>
    </linearGradient>
  </defs>
  <rect width="64" height="64" rx="12" ry="12" fill="url(#fg)"/>
  <!-- Mountain peak at top -->
  <path d="M14,30 L26,14 L30,20 L32,12 L34,20 L38,14 L50,30 Z" fill="#FFFFFF" opacity="0.35"/>
  <!-- Snow cap -->
  <path d="M30,16 L32,12 L34,16 L33,15 L32,13 L31,15 Z" fill="#FFFFFF" opacity="0.7"/>
  <!-- H as path - bold for small size -->
  <path d="M12,35 L12,53 L19,53 L19,46 L27,46 L27,53 L34,53 L34,35 L27,35 L27,42 L19,42 L19,35 Z" fill="#FFFFFF"/>
  <!-- C as path -->
  <path d="M45,35 C40,35 37,38 37,44 C37,50 40,53 45,53 C48,53 50,52 51,50 L48,47 C47,48 46,49 45,49 C42,49 41,47 41,44 C41,41 42,39 45,39 C46,39 47,40 48,41 L51,38 C50,36 48,35 45,35 Z" fill="#FFFFFF"/>
</svg>